<svg xmlns="http://www.w3.org/2000/svg" xmlns:xlink="http://www.w3.org/1999/xlink" viewBox="0 0 71.3 70.8">
  <defs>
    <linearGradient id="b" x1="544.9" y1="-1348.3" x2="562" y2="-1344.2" gradientTransform="rotate(31.5 -2156.6 -1572.2)" gradientUnits="userSpaceOnUse">
      <stop offset="0" stop-color="#00bcef" />
      <stop offset=".3" stop-color="#1997e3" />
      <stop offset=".6" stop-color="#2b7cd9" />
      <stop offset=".8" stop-color="#366cd4" />
      <stop offset="1" stop-color="#3a66d2" />
    </linearGradient>
    <linearGradient id="a" x1="7.8" y1="14.9" x2="56.9" y2="64" gradientUnits="userSpaceOnUse">
      <stop offset="0" stop-color="#00bcef" />
      <stop offset=".1" stop-color="#0ea7e8" />
      <stop offset=".3" stop-color="#218bde" />
      <stop offset=".6" stop-color="#2f76d8" />
      <stop offset=".8" stop-color="#376ad3" />
      <stop offset="1" stop-color="#3a66d2" />
    </linearGradient>
    <linearGradient id="c" x1="855.2" y1="-1346.6" x2="921.2" y2="-1324.3" gradientTransform="rotate(161.4 349.8 -720.5)" gradientUnits="userSpaceOnUse">
      <stop offset="0" stop-color="#00bcef" />
      <stop offset="0" stop-color="#03b7ed" />
      <stop offset=".5" stop-color="#218bdf" />
      <stop offset=".8" stop-color="#3370d5" />
      <stop offset="1" stop-color="#3a66d2" />
    </linearGradient>
    <linearGradient id="d" x1="972.6" y1="-482.1" x2="1001.9" y2="-452.9" gradientTransform="rotate(82 222.2 -765.2)" xlink:href="#a" />
    <linearGradient id="e" x1="349.2" y1="-67.7" x2="361.9" y2="-54.9" gradientTransform="rotate(-129.8 219.6 62.3)" xlink:href="#a" />
    <linearGradient id="f" x1="-196.1" y1="-1168" x2="-156.8" y2="-1156.3" gradientTransform="rotate(-116.6 300.1 -628.5)" xlink:href="#b" />
  </defs>
  <g data-name="Layer 2">
    <g data-name="Слой 1">
      <path d="M33.4 44.5a8.3 8.3 0 017-14.9 9 9 0 10-.8 16 8.3 8.3 0 01-6.2-1z" fill="url(#b)" />
      <path d="M42.2 64.2A32.5 32.5 0 019.7 31.7c0-15.3 13.3-27 27.7-30.3C18 1.7 0 16.1 0 35.4A35.4 35.4 0 0065 55a32.4 32.4 0 01-22.8 9.3z" fill="url(#a)" />
      <path d="M20 10.3a32.5 32.5 0 0127.5 58.4 35.4 35.4 0 10-46-42.3 32.4 32.4 0 0118.5-16z" fill="url(#c)" />
      <path d="M19.8 42.5a19.3 19.3 0 0116.4-21.7c9-1.3 17.5 5.4 20.6 13.6C55 23 44.5 13.8 33.2 15.4a21 21 0 00-6 39.7 19.2 19.2 0 01-7.4-12.6z" fill="url(#d)" />
      <path d="M40.4 31.4a8.3 8.3 0 01-11.4 12 9 9 0 105.8-15 8.3 8.3 0 015.6 3z" fill="url(#e)" />
      <path d="M49.6 25a19.3 19.3 0 01-32 21 21 21 0 1021-30.5 19.2 19.2 0 0111 9.6z" fill="url(#f)" />
    </g>
  </g>
</svg>
